<?xml version="1.0" standalone="no"?>
<!DOCTYPE svg PUBLIC "-//W3C//DTD SVG 20010904//EN"
 "http://www.w3.org/TR/2001/REC-SVG-20010904/DTD/svg10.dtd">
<svg version="1.0" xmlns="http://www.w3.org/2000/svg"
 width="500.000000pt" height="500.000000pt" viewBox="0 0 500.000000 500.000000"
 preserveAspectRatio="xMidYMid meet">
<metadata>
Created by potrace 1.14, written by Peter Selinger 2001-2017
</metadata>
<g transform="translate(0.000000,500.000000) scale(0.100000,-0.100000)"
fill="#000000" stroke="none">
<path d="M2264 4780 c-686 -72 -1271 -427 -1651 -1000 -326 -491 -438 -1125
-302 -1710 67 -288 220 -613 398 -845 176 -230 450 -464 711 -607 223 -122
514 -212 800 -248 124 -15 391 -12 526 5 489 65 943 284 1279 620 179 178 320
376 430 600 138 282 203 525 224 839 47 699 -248 1384 -789 1834 -163 135
-273 208 -445 292 -217 106 -411 167 -655 205 -124 19 -412 27 -526 15z m286
-262 c-108 -47 -197 -97 -253 -143 -183 -151 -323 -415 -373 -705 -21 -123
-21 -379 0 -515 57 -364 176 -640 465 -1079 231 -350 334 -536 406 -736 66
-184 83 -381 45 -519 -25 -89 -52 -143 -119 -238 -40 -57 -57 -73 -76 -73 -30
0 -31 4 -4 41 11 16 38 66 59 112 92 196 100 384 26 639 -69 237 -183 455
-442 845 -85 127 -183 287 -219 355 -284 545 -330 1116 -125 1555 92 198 225
331 404 403 90 36 279 89 206 58z m773 -780 c26 -20 127 -160 133 -185 12 -47
-40 -92 -92 -79 -22 6 -111 114 -143 173 -32 62 47 132 102 91z m-120 -239
c81 -35 107 -59 107 -99 0 -31 -39 -70 -70 -70 -30 0 -187 77 -193 95 -20 51
10 105 59 105 14 0 58 -14 97 -31z m105 -279 c27 -26 29 -73 3 -99 -11 -11
-45 -24 -78 -31 -32 -6 -68 -14 -80 -17 -16 -4 -31 4 -54 26 -25 26 -30 37
-24 59 9 40 23 50 90 66 85 20 118 19 143 -4z"/>
</g>
</svg>
